<svg width="25" height="25" viewBox="0 0 25 25" fill="none" xmlns="http://www.w3.org/2000/svg">
<path fill-rule="evenodd" clip-rule="evenodd" d="M12.097 0.304993C8.91439 0.304993 5.86214 1.56927 3.6117 3.81971C1.36127 6.07015 0.0969849 9.12239 0.0969849 12.305C0.0969849 15.4876 1.36127 18.5398 3.6117 20.7903C5.86214 23.0407 8.91439 24.305 12.097 24.305C15.2796 24.305 18.3318 23.0407 20.5823 20.7903C22.8327 18.5398 24.097 15.4876 24.097 12.305C24.097 9.12239 22.8327 6.07015 20.5823 3.81971C18.3318 1.56927 15.2796 0.304993 12.097 0.304993ZM17.6009 17.6125C17.5498 17.6966 17.4826 17.7697 17.4032 17.8277C17.3237 17.8857 17.2336 17.9275 17.138 17.9506C17.0424 17.9737 16.9431 17.9777 16.846 17.9623C16.7488 17.947 16.6556 17.9126 16.5718 17.8612C13.7535 16.1396 10.2084 15.7507 6.03067 16.7046C5.93497 16.7264 5.83589 16.7292 5.73911 16.7128C5.64232 16.6963 5.54972 16.661 5.46659 16.6088C5.38346 16.5566 5.31143 16.4885 5.25462 16.4084C5.1978 16.3284 5.15731 16.2379 5.13545 16.1422C5.1136 16.0465 5.11081 15.9474 5.12725 15.8506C5.14368 15.7538 5.17902 15.6612 5.23124 15.5781C5.28346 15.495 5.35154 15.4229 5.4316 15.3661C5.51166 15.3093 5.60213 15.2688 5.69783 15.247C10.2683 14.2013 14.1897 14.6514 17.3522 16.5847C17.7042 16.8002 17.8152 17.2606 17.6009 17.6125ZM19.0674 14.3454C18.9377 14.5565 18.7295 14.7075 18.4885 14.7654C18.2475 14.8232 17.9935 14.7832 17.782 14.654C14.5569 12.671 9.6396 12.0971 5.82408 13.255C5.59194 13.3101 5.34753 13.2746 5.14067 13.1557C4.93382 13.0368 4.78009 12.8435 4.71081 12.6152C4.64154 12.3869 4.66194 12.1408 4.76785 11.927C4.87377 11.7132 5.05723 11.5478 5.28083 11.4646C9.6396 10.1422 15.0568 10.7836 18.7601 13.0587C18.865 13.1229 18.9562 13.2072 19.0285 13.3067C19.1007 13.4063 19.1527 13.5191 19.1814 13.6387C19.21 13.7583 19.2148 13.8824 19.1955 14.0039C19.1762 14.1254 19.1331 14.2418 19.0687 14.3467L19.0674 14.3454ZM19.1962 10.943C15.3272 8.64633 8.94587 8.43464 5.25405 9.55685C5.11238 9.60205 4.96313 9.61863 4.81499 9.60565C4.66685 9.59266 4.52276 9.55035 4.39111 9.4812C4.25946 9.41204 4.14287 9.3174 4.04811 9.20279C3.95335 9.08818 3.88232 8.95588 3.83914 8.81358C3.79596 8.67128 3.78149 8.52181 3.79658 8.37387C3.81167 8.22592 3.85601 8.08246 3.92703 7.9518C3.99804 7.82114 4.09432 7.7059 4.21027 7.61278C4.32621 7.51966 4.4595 7.45051 4.6024 7.40935C8.84002 6.12136 15.887 6.37131 20.3389 9.0136C20.5949 9.16546 20.7801 9.4128 20.8538 9.70122C20.9274 9.98964 20.8835 10.2955 20.7316 10.5515C20.5798 10.8076 20.3324 10.9928 20.044 11.0664C19.7556 11.1401 19.4497 11.0962 19.1937 10.9443" fill="white"/>
</svg>
