<svg width="24" height="24" viewBox="0 0 24 24" fill="none" xmlns="http://www.w3.org/2000/svg">
<path fill-rule="evenodd" clip-rule="evenodd" d="M12 0C5.37345 0 0 5.50827 0 12.3038C0 17.7397 3.43837 22.3517 8.20633 23.9786C8.80605 24.0925 9.02623 23.7117 9.02623 23.3868C9.02623 23.0936 9.0151 22.1242 9.00994 21.0961C5.67152 21.8403 4.96708 19.6444 4.96708 19.6444C4.42121 18.2224 3.6347 17.8441 3.6347 17.8441C2.54594 17.0804 3.71677 17.0961 3.71677 17.0961C4.92177 17.1829 5.55627 18.3642 5.55627 18.3642C6.62655 20.245 8.36352 19.7012 9.04829 19.3868C9.15619 18.5918 9.46698 18.0488 9.81016 17.7416C7.1448 17.4307 4.34292 16.3755 4.34292 11.661C4.34292 10.3179 4.81168 9.22032 5.57932 8.35868C5.45473 8.04857 5.04398 6.79717 5.69577 5.10241C5.69577 5.10241 6.70345 4.77193 8.99642 6.3638C9.95363 6.09119 10.9802 5.95447 12 5.94958C13.0198 5.95447 14.0472 6.09119 15.0062 6.3638C17.2965 4.77193 18.3028 5.10241 18.3028 5.10241C18.956 6.79717 18.5453 8.04857 18.4207 8.35868C19.1901 9.22032 19.6555 10.3179 19.6555 11.661C19.6555 16.3869 16.8482 17.4272 14.1761 17.7318C14.6065 18.1136 14.9901 18.8624 14.9901 20.0103C14.9901 21.6566 14.9764 22.9815 14.9764 23.3868C14.9764 23.7144 15.1922 24.098 15.8004 23.9772C20.566 22.3485 24 17.7381 24 12.3038C24 5.50827 18.6273 0 12 0Z" fill="white"/>
<path d="M5.03119 18.2213C4.97396 18.2757 4.86189 18.2505 4.78618 18.1645C4.70748 18.0787 4.69298 17.9638 4.751 17.9088C4.81002 17.8544 4.91852 17.8799 4.99701 17.9656C5.0757 18.0524 5.091 18.1663 5.03119 18.2213Z" fill="white"/>
<path d="M4.54509 17.6654C4.51866 17.7267 4.42487 17.7451 4.33942 17.7029C4.25218 17.6628 4.2035 17.5794 4.23171 17.5181C4.25755 17.4554 4.35134 17.4378 4.43838 17.4798C4.52542 17.5199 4.57509 17.6041 4.54509 17.6654Z" fill="white"/>
<path d="M5.50433 18.9299C5.43081 18.9824 5.31039 18.9333 5.23607 18.8239C5.16254 18.7143 5.16254 18.5831 5.23785 18.5305C5.31217 18.4779 5.43081 18.5254 5.50612 18.6338C5.57945 18.7451 5.57945 18.8763 5.50433 18.9299Z" fill="white"/>
<path d="M6.15248 19.6145C6.0867 19.6889 5.94661 19.6689 5.84407 19.5675C5.73915 19.4682 5.70994 19.3274 5.77571 19.2531C5.84248 19.1785 5.98337 19.1995 6.0867 19.3001C6.19083 19.3992 6.22243 19.541 6.15248 19.6145Z" fill="white"/>
<path d="M7.04671 20.0121C7.0175 20.1084 6.88277 20.152 6.74685 20.1111C6.61113 20.0689 6.5223 19.9562 6.54973 19.8589C6.57794 19.7617 6.71347 19.7162 6.85038 19.76C6.98591 19.802 7.07493 19.9141 7.04671 20.0121Z" fill="white"/>
<path d="M8.02884 20.0857C8.03222 20.1872 7.91697 20.2713 7.77429 20.2731C7.63082 20.2766 7.51457 20.1943 7.51298 20.0944C7.51298 19.992 7.62585 19.9088 7.76912 19.9062C7.9118 19.9033 8.02884 19.985 8.02884 20.0857Z" fill="white"/>
<path d="M8.9426 19.9263C8.95969 20.0251 8.86053 20.1268 8.71884 20.1539C8.57954 20.1802 8.45058 20.1188 8.43289 20.0208C8.4156 19.9194 8.51635 19.8177 8.65565 19.7914C8.79753 19.7662 8.92451 19.8257 8.9426 19.9263Z" fill="white"/>
</svg>
